<svg width="1180" height="520" viewBox="0 0 1180 520" fill="none" xmlns="http://www.w3.org/2000/svg">
  <rect width="1180" height="520" rx="28" fill="#0B1020"/>
  <defs>
    <linearGradient id="panel" x1="0" y1="0" x2="1" y2="1">
      <stop stop-color="#172033"/>
      <stop offset="1" stop-color="#101827"/>
    </linearGradient>
    <linearGradient id="accent" x1="0" y1="0" x2="1" y2="1">
      <stop stop-color="#7DD3FC"/>
      <stop offset="1" stop-color="#A78BFA"/>
    </linearGradient>
    <filter id="shadow" x="-20%" y="-20%" width="140%" height="140%">
      <feDropShadow dx="0" dy="12" stdDeviation="18" flood-color="#000000" flood-opacity="0.35"/>
    </filter>
  </defs>

  <text x="54" y="72" fill="#F8FAFC" font-family="Segoe UI, Inter, Arial, sans-serif" font-size="36" font-weight="700">AegisLoop</text>
  <text x="54" y="108" fill="#94A3B8" font-family="Segoe UI, Inter, Arial, sans-serif" font-size="18">Guarded ChatGPT-to-Codex autonomy loop</text>

  <g filter="url(#shadow)">
    <rect x="64" y="174" width="210" height="112" rx="18" fill="url(#panel)" stroke="#334155"/>
    <text x="92" y="218" fill="#E2E8F0" font-family="Segoe UI, Inter, Arial, sans-serif" font-size="22" font-weight="700">ChatGPT</text>
    <text x="92" y="252" fill="#94A3B8" font-family="Segoe UI, Inter, Arial, sans-serif" font-size="15">planner / reviewer</text>
  </g>

  <g filter="url(#shadow)">
    <rect x="358" y="174" width="230" height="112" rx="18" fill="url(#panel)" stroke="#334155"/>
    <text x="388" y="218" fill="#E2E8F0" font-family="Segoe UI, Inter, Arial, sans-serif" font-size="22" font-weight="700">Chrome extension</text>
    <text x="388" y="252" fill="#94A3B8" font-family="Segoe UI, Inter, Arial, sans-serif" font-size="15">extracts codex blocks</text>
  </g>

  <g filter="url(#shadow)">
    <rect x="672" y="174" width="218" height="112" rx="18" fill="url(#panel)" stroke="#334155"/>
    <text x="704" y="218" fill="#E2E8F0" font-family="Segoe UI, Inter, Arial, sans-serif" font-size="22" font-weight="700">Local bridge</text>
    <text x="704" y="252" fill="#94A3B8" font-family="Segoe UI, Inter, Arial, sans-serif" font-size="15">127.0.0.1 control plane</text>
  </g>

  <g filter="url(#shadow)">
    <rect x="974" y="174" width="150" height="112" rx="18" fill="url(#panel)" stroke="#334155"/>
    <text x="1014" y="218" fill="#E2E8F0" font-family="Segoe UI, Inter, Arial, sans-serif" font-size="22" font-weight="700">Codex</text>
    <text x="998" y="252" fill="#94A3B8" font-family="Segoe UI, Inter, Arial, sans-serif" font-size="15">local executor</text>
  </g>

  <path d="M282 230H350" stroke="url(#accent)" stroke-width="4" stroke-linecap="round"/>
  <path d="M340 219L356 230L340 241" stroke="#A78BFA" stroke-width="4" stroke-linecap="round" stroke-linejoin="round"/>
  <text x="288" y="204" fill="#CBD5E1" font-family="Segoe UI, Inter, Arial, sans-serif" font-size="14">```codex task</text>

  <path d="M596 230H664" stroke="url(#accent)" stroke-width="4" stroke-linecap="round"/>
  <path d="M654 219L670 230L654 241" stroke="#A78BFA" stroke-width="4" stroke-linecap="round" stroke-linejoin="round"/>
  <text x="604" y="204" fill="#CBD5E1" font-family="Segoe UI, Inter, Arial, sans-serif" font-size="14">localhost API</text>

  <path d="M898 230H966" stroke="url(#accent)" stroke-width="4" stroke-linecap="round"/>
  <path d="M956 219L972 230L956 241" stroke="#A78BFA" stroke-width="4" stroke-linecap="round" stroke-linejoin="round"/>
  <text x="906" y="204" fill="#CBD5E1" font-family="Segoe UI, Inter, Arial, sans-serif" font-size="14">exec resume</text>

  <path d="M1050 300C1050 392 168 392 168 300" stroke="#475569" stroke-width="3" stroke-dasharray="8 8"/>
  <path d="M156 312L168 296L180 312" stroke="#64748B" stroke-width="3" stroke-linecap="round" stroke-linejoin="round"/>
  <text x="478" y="418" fill="#CBD5E1" font-family="Segoe UI, Inter, Arial, sans-serif" font-size="16">Codex result is inserted back into ChatGPT</text>

  <g filter="url(#shadow)">
    <rect x="306" y="344" width="568" height="76" rx="18" fill="#111827" stroke="#334155"/>
    <circle cx="348" cy="382" r="18" fill="url(#accent)"/>
    <text x="340" y="390" fill="#0B1020" font-family="Segoe UI, Inter, Arial, sans-serif" font-size="22" font-weight="900">A</text>
    <text x="382" y="374" fill="#E2E8F0" font-family="Segoe UI, Inter, Arial, sans-serif" font-size="18" font-weight="700">Local aegis</text>
    <text x="382" y="400" fill="#94A3B8" font-family="Segoe UI, Inter, Arial, sans-serif" font-size="15">gates · dedupe · workspace lock · audit log</text>
  </g>
</svg>
